<mxfile host="app.diagrams.net" modified="2021-09-08T15:14:57.836Z" agent="5.0 (Windows NT 10.0; Win64; x64) AppleWebKit/537.36 (KHTML, like Gecko) Chrome/93.0.4577.63 Safari/537.36" etag="VTv2Tl-99w4Qv8Y9fMTa" version="15.1.2" type="github">
  <diagram id="wFE0QG_FPsp0jaGvCLVb" name="Page-1">
    <mxGraphModel dx="1769" dy="967" grid="1" gridSize="10" guides="1" tooltips="1" connect="1" arrows="1" fold="1" page="1" pageScale="1" pageWidth="850" pageHeight="1100" math="0" shadow="0">
      <root>
        <mxCell id="0" />
        <mxCell id="1" parent="0" />
        <mxCell id="ud2w9rgS83SupQeakjam-1" value="&lt;b&gt;&lt;font style=&quot;font-size: 32px&quot;&gt;ATTRIBUTES REQUIRED&lt;/font&gt;&lt;/b&gt;" style="rounded=0;whiteSpace=wrap;html=1;" vertex="1" parent="1">
          <mxGeometry x="140" y="60" width="570" height="60" as="geometry" />
        </mxCell>
        <mxCell id="ud2w9rgS83SupQeakjam-4" value="" style="edgeStyle=orthogonalEdgeStyle;rounded=0;orthogonalLoop=1;jettySize=auto;html=1;" edge="1" parent="1" source="ud2w9rgS83SupQeakjam-2" target="ud2w9rgS83SupQeakjam-3">
          <mxGeometry relative="1" as="geometry" />
        </mxCell>
        <mxCell id="ud2w9rgS83SupQeakjam-38" value="" style="edgeStyle=orthogonalEdgeStyle;rounded=0;orthogonalLoop=1;jettySize=auto;html=1;" edge="1" parent="1" source="ud2w9rgS83SupQeakjam-2" target="ud2w9rgS83SupQeakjam-6">
          <mxGeometry relative="1" as="geometry" />
        </mxCell>
        <mxCell id="ud2w9rgS83SupQeakjam-2" value="ARTICLE ID" style="rounded=1;whiteSpace=wrap;html=1;" vertex="1" parent="1">
          <mxGeometry x="140" y="150" width="250" height="60" as="geometry" />
        </mxCell>
        <mxCell id="ud2w9rgS83SupQeakjam-3" value="STRING" style="rounded=1;whiteSpace=wrap;html=1;" vertex="1" parent="1">
          <mxGeometry x="460" y="150" width="250" height="60" as="geometry" />
        </mxCell>
        <mxCell id="ud2w9rgS83SupQeakjam-5" value="" style="edgeStyle=orthogonalEdgeStyle;rounded=0;orthogonalLoop=1;jettySize=auto;html=1;" edge="1" parent="1" source="ud2w9rgS83SupQeakjam-6" target="ud2w9rgS83SupQeakjam-7">
          <mxGeometry relative="1" as="geometry" />
        </mxCell>
        <mxCell id="ud2w9rgS83SupQeakjam-39" value="" style="edgeStyle=orthogonalEdgeStyle;rounded=0;orthogonalLoop=1;jettySize=auto;html=1;" edge="1" parent="1" source="ud2w9rgS83SupQeakjam-6" target="ud2w9rgS83SupQeakjam-17">
          <mxGeometry relative="1" as="geometry" />
        </mxCell>
        <mxCell id="ud2w9rgS83SupQeakjam-6" value="ENGLISH" style="rounded=1;whiteSpace=wrap;html=1;" vertex="1" parent="1">
          <mxGeometry x="140" y="240" width="250" height="60" as="geometry" />
        </mxCell>
        <mxCell id="ud2w9rgS83SupQeakjam-15" value="" style="edgeStyle=orthogonalEdgeStyle;rounded=0;orthogonalLoop=1;jettySize=auto;html=1;" edge="1" parent="1" source="ud2w9rgS83SupQeakjam-7" target="ud2w9rgS83SupQeakjam-14">
          <mxGeometry relative="1" as="geometry" />
        </mxCell>
        <mxCell id="ud2w9rgS83SupQeakjam-7" value="TITLE" style="rounded=1;whiteSpace=wrap;html=1;" vertex="1" parent="1">
          <mxGeometry x="460" y="240" width="120" height="60" as="geometry" />
        </mxCell>
        <mxCell id="ud2w9rgS83SupQeakjam-14" value="CONTENT" style="rounded=1;whiteSpace=wrap;html=1;" vertex="1" parent="1">
          <mxGeometry x="610" y="240" width="100" height="60" as="geometry" />
        </mxCell>
        <mxCell id="ud2w9rgS83SupQeakjam-16" value="" style="edgeStyle=orthogonalEdgeStyle;rounded=0;orthogonalLoop=1;jettySize=auto;html=1;" edge="1" parent="1" source="ud2w9rgS83SupQeakjam-17" target="ud2w9rgS83SupQeakjam-19">
          <mxGeometry relative="1" as="geometry" />
        </mxCell>
        <mxCell id="ud2w9rgS83SupQeakjam-40" value="" style="edgeStyle=orthogonalEdgeStyle;rounded=0;orthogonalLoop=1;jettySize=auto;html=1;" edge="1" parent="1" source="ud2w9rgS83SupQeakjam-17" target="ud2w9rgS83SupQeakjam-22">
          <mxGeometry relative="1" as="geometry" />
        </mxCell>
        <mxCell id="ud2w9rgS83SupQeakjam-17" value="HINDI" style="rounded=1;whiteSpace=wrap;html=1;" vertex="1" parent="1">
          <mxGeometry x="140" y="330" width="250" height="60" as="geometry" />
        </mxCell>
        <mxCell id="ud2w9rgS83SupQeakjam-18" value="" style="edgeStyle=orthogonalEdgeStyle;rounded=0;orthogonalLoop=1;jettySize=auto;html=1;" edge="1" parent="1" source="ud2w9rgS83SupQeakjam-19" target="ud2w9rgS83SupQeakjam-20">
          <mxGeometry relative="1" as="geometry" />
        </mxCell>
        <mxCell id="ud2w9rgS83SupQeakjam-19" value="TITLE" style="rounded=1;whiteSpace=wrap;html=1;" vertex="1" parent="1">
          <mxGeometry x="460" y="330" width="120" height="60" as="geometry" />
        </mxCell>
        <mxCell id="ud2w9rgS83SupQeakjam-20" value="CONTENT" style="rounded=1;whiteSpace=wrap;html=1;" vertex="1" parent="1">
          <mxGeometry x="610" y="330" width="100" height="60" as="geometry" />
        </mxCell>
        <mxCell id="ud2w9rgS83SupQeakjam-21" value="" style="edgeStyle=orthogonalEdgeStyle;rounded=0;orthogonalLoop=1;jettySize=auto;html=1;" edge="1" parent="1" source="ud2w9rgS83SupQeakjam-22" target="ud2w9rgS83SupQeakjam-24">
          <mxGeometry relative="1" as="geometry" />
        </mxCell>
        <mxCell id="ud2w9rgS83SupQeakjam-41" value="" style="edgeStyle=orthogonalEdgeStyle;rounded=0;orthogonalLoop=1;jettySize=auto;html=1;" edge="1" parent="1" source="ud2w9rgS83SupQeakjam-22" target="ud2w9rgS83SupQeakjam-27">
          <mxGeometry relative="1" as="geometry" />
        </mxCell>
        <mxCell id="ud2w9rgS83SupQeakjam-22" value="ODIA" style="rounded=1;whiteSpace=wrap;html=1;" vertex="1" parent="1">
          <mxGeometry x="140" y="420" width="250" height="60" as="geometry" />
        </mxCell>
        <mxCell id="ud2w9rgS83SupQeakjam-23" value="" style="edgeStyle=orthogonalEdgeStyle;rounded=0;orthogonalLoop=1;jettySize=auto;html=1;" edge="1" parent="1" source="ud2w9rgS83SupQeakjam-24" target="ud2w9rgS83SupQeakjam-25">
          <mxGeometry relative="1" as="geometry" />
        </mxCell>
        <mxCell id="ud2w9rgS83SupQeakjam-24" value="TITLE" style="rounded=1;whiteSpace=wrap;html=1;" vertex="1" parent="1">
          <mxGeometry x="460" y="420" width="120" height="60" as="geometry" />
        </mxCell>
        <mxCell id="ud2w9rgS83SupQeakjam-25" value="CONTENT" style="rounded=1;whiteSpace=wrap;html=1;" vertex="1" parent="1">
          <mxGeometry x="610" y="420" width="100" height="60" as="geometry" />
        </mxCell>
        <mxCell id="ud2w9rgS83SupQeakjam-26" value="" style="edgeStyle=orthogonalEdgeStyle;rounded=0;orthogonalLoop=1;jettySize=auto;html=1;" edge="1" parent="1" source="ud2w9rgS83SupQeakjam-27" target="ud2w9rgS83SupQeakjam-28">
          <mxGeometry relative="1" as="geometry" />
        </mxCell>
        <mxCell id="ud2w9rgS83SupQeakjam-42" value="" style="edgeStyle=orthogonalEdgeStyle;rounded=0;orthogonalLoop=1;jettySize=auto;html=1;" edge="1" parent="1" source="ud2w9rgS83SupQeakjam-27" target="ud2w9rgS83SupQeakjam-33">
          <mxGeometry relative="1" as="geometry" />
        </mxCell>
        <mxCell id="ud2w9rgS83SupQeakjam-27" value="SOURCE" style="rounded=1;whiteSpace=wrap;html=1;" vertex="1" parent="1">
          <mxGeometry x="140" y="510" width="250" height="60" as="geometry" />
        </mxCell>
        <mxCell id="ud2w9rgS83SupQeakjam-28" value="SOURCE LINK" style="rounded=1;whiteSpace=wrap;html=1;" vertex="1" parent="1">
          <mxGeometry x="460" y="510" width="250" height="60" as="geometry" />
        </mxCell>
        <mxCell id="ud2w9rgS83SupQeakjam-32" value="" style="edgeStyle=orthogonalEdgeStyle;rounded=0;orthogonalLoop=1;jettySize=auto;html=1;" edge="1" parent="1" source="ud2w9rgS83SupQeakjam-33" target="ud2w9rgS83SupQeakjam-34">
          <mxGeometry relative="1" as="geometry" />
        </mxCell>
        <mxCell id="ud2w9rgS83SupQeakjam-43" value="" style="edgeStyle=orthogonalEdgeStyle;rounded=0;orthogonalLoop=1;jettySize=auto;html=1;" edge="1" parent="1" source="ud2w9rgS83SupQeakjam-33" target="ud2w9rgS83SupQeakjam-36">
          <mxGeometry relative="1" as="geometry" />
        </mxCell>
        <mxCell id="ud2w9rgS83SupQeakjam-33" value="DATE" style="rounded=1;whiteSpace=wrap;html=1;" vertex="1" parent="1">
          <mxGeometry x="140" y="600" width="250" height="60" as="geometry" />
        </mxCell>
        <mxCell id="ud2w9rgS83SupQeakjam-34" value="DATE TIME" style="rounded=1;whiteSpace=wrap;html=1;" vertex="1" parent="1">
          <mxGeometry x="460" y="600" width="250" height="60" as="geometry" />
        </mxCell>
        <mxCell id="ud2w9rgS83SupQeakjam-35" value="" style="edgeStyle=orthogonalEdgeStyle;rounded=0;orthogonalLoop=1;jettySize=auto;html=1;" edge="1" parent="1" source="ud2w9rgS83SupQeakjam-36" target="ud2w9rgS83SupQeakjam-37">
          <mxGeometry relative="1" as="geometry" />
        </mxCell>
        <mxCell id="ud2w9rgS83SupQeakjam-36" value="IMAGE" style="rounded=1;whiteSpace=wrap;html=1;" vertex="1" parent="1">
          <mxGeometry x="140" y="690" width="250" height="60" as="geometry" />
        </mxCell>
        <mxCell id="ud2w9rgS83SupQeakjam-37" value="IMAGE LINK" style="rounded=1;whiteSpace=wrap;html=1;" vertex="1" parent="1">
          <mxGeometry x="460" y="690" width="250" height="60" as="geometry" />
        </mxCell>
      </root>
    </mxGraphModel>
  </diagram>
</mxfile>
